<?xml version="1.0" encoding="UTF-8"?>
<svg version="1.1" xmlns="http://www.w3.org/2000/svg" width="1024" height="1024">
<path d="M0 0 C337.92 0 675.84 0 1024 0 C1024 337.92 1024 675.84 1024 1024 C686.08 1024 348.16 1024 0 1024 C0 686.08 0 348.16 0 0 Z " fill="#181818" transform="translate(0,0)"/>
<path d="M0 0 C0.87374268 0.00149048 1.74748535 0.00298096 2.64770508 0.0045166 C22.39705187 0.0649094 41.49484664 1.67975093 60.5 7.3125 C61.51578125 7.60898437 62.5315625 7.90546875 63.578125 8.2109375 C76.21491708 12.16415855 89.69033645 17.55329075 100.5 25.3125 C100.5 25.9725 100.5 26.6325 100.5 27.3125 C101.36818359 27.70501953 101.36818359 27.70501953 102.25390625 28.10546875 C108.06289667 31.22716969 112.99111027 36.57238516 117.5 41.3125 C118.02078125 41.85003906 118.5415625 42.38757813 119.078125 42.94140625 C135.88995586 61.07849404 143.91690988 84.49421064 143.8125 108.8125 C143.81100952 109.47280212 143.80951904 110.13310425 143.8079834 110.81341553 C143.74634808 126.02216036 142.09323303 140.06886309 136.5 154.3125 C136.26249023 154.95638672 136.02498047 155.60027344 135.78027344 156.26367188 C128.57105264 175.720528 117.65750936 194.27045974 104.5 210.3125 C103.7884375 211.21226562 103.076875 212.11203125 102.34375 213.0390625 C93.56580387 224.01149516 83.88310485 234.03160594 74 244 C73.13407227 244.87897949 72.26814453 245.75795898 71.37597656 246.66357422 C65.39768896 252.64973688 59.10667583 258.03580856 52.5 263.3125 C51.47263364 264.17610681 50.4492301 265.04450327 49.43359375 265.921875 C37.02050566 276.56721502 23.65339022 286.12188066 9.5 294.3125 C8.85160156 294.69470703 8.20320313 295.07691406 7.53515625 295.47070312 C-18.41230719 310.71544189 -48.99751873 323.80550948 -79.48046875 324.5859375 C-94.61822257 324.29268066 -94.61822257 324.29268066 -107.3984375 330.51953125 C-109.91299823 334.18767454 -111.52247683 338.21410378 -113.16601562 342.32958984 C-115.59503904 347.76110669 -118.89048715 352.71510784 -122.04983521 357.74441528 C-130.33682097 370.98772055 -138.1333374 384.53717127 -145.5 398.3125 C-145.87995117 399.01665039 -146.25990234 399.72080078 -146.65136719 400.44628906 C-161.25974311 427.57613007 -175.81048033 455.02725653 -177.5 486.3125 C-187.04910358 485.57795357 -193.80896655 479.72864278 -200.203125 473.06640625 C-203.73503236 468.83172141 -206.18501305 464.2950878 -208.5 459.3125 C-208.82742188 458.63960937 -209.15484375 457.96671875 -209.4921875 457.2734375 C-216.09973743 442.98854385 -214.55363174 420.7929146 -209.38818359 406.24951172 C-208.47911319 403.91053356 -207.50492039 401.61187818 -206.5 399.3125 C-205.9445752 398.01795898 -205.9445752 398.01795898 -205.37792969 396.69726562 C-195.6598199 374.44144776 -182.85814794 353.67615334 -169.7578125 333.28173828 C-167.99376789 330.51994018 -166.27521188 327.73136125 -164.5625 324.9375 C-163.94117188 323.92429687 -163.31984375 322.91109375 -162.6796875 321.8671875 C-162.34291992 321.31772461 -162.00615234 320.76826172 -161.65917969 320.20214844 C-154.70740933 308.86965 -147.72053406 297.5677477 -140.46264648 286.42822266 C-137.33966948 281.62971103 -134.27666455 276.79730402 -131.25 271.9375 C-130.83121582 271.26517334 -130.41243164 270.59284668 -129.98095703 269.90014648 C-129.18012319 268.6141278 -128.37933963 267.3280778 -127.57861328 266.04199219 C-118.19979036 251.00360794 -108.45364781 236.19049419 -98.59448242 221.46386719 C-96.05842182 217.67009918 -93.55469764 213.86321925 -91.125 210 C-87.86871456 204.82917566 -84.46536627 199.76233534 -81.0625 194.6875 C-73.66456729 183.63746116 -66.48951696 172.45135705 -59.36035156 161.2265625 C-57.66960056 158.57816303 -55.96069672 155.94293641 -54.2421875 153.3125 C-42.52493176 135.2813216 -29.54282942 115.0135582 -26.5 93.3125 C-14.24925553 93.17214777 -3.97807362 97.26749158 5.0703125 105.640625 C12.86824076 114.75951378 13.39481677 124.79525946 12.5 136.3125 C10.22368372 153.74352664 0.6012253 168.67369142 -8.5 183.3125 C-9.30209474 184.61197212 -10.10417793 185.91145138 -10.90625 187.2109375 C-19.50184433 201.08560806 -28.41035608 214.75715095 -37.5 228.3125 C-38.70257026 230.11405943 -39.9039057 231.91643738 -41.10498047 233.71899414 C-41.95916949 235.00093448 -42.813667 236.28266931 -43.66845703 237.56420898 C-45.67967942 240.57952752 -47.68830228 243.59646386 -49.69140625 246.6171875 C-53.81870126 252.8367981 -57.98220123 259.03061545 -62.1796875 265.203125 C-62.59857742 265.81932205 -63.01746735 266.4355191 -63.4490509 267.07038879 C-65.56792165 270.18669522 -67.68868652 273.30168843 -69.81225586 276.41479492 C-73.82756791 282.3100814 -77.78051021 288.22400454 -81.5 294.3125 C-51.062037 289.24475228 -26.83248233 275.36514698 -3.80859375 255.18359375 C-0.89890123 252.63666809 2.09539273 250.21619127 5.125 247.8125 C14.79278021 239.95564618 24.57373151 230.70190274 31.5 220.3125 C32.16 220.3125 32.82 220.3125 33.5 220.3125 C33.75136719 219.74660156 34.00273438 219.18070313 34.26171875 218.59765625 C35.6771981 215.98549404 37.36763779 213.99795762 39.3125 211.75 C61.58460465 184.91570618 78.01868759 154.08523854 86.5 120.3125 C86.87318359 118.87003906 86.87318359 118.87003906 87.25390625 117.3984375 C91.55168339 97.98330442 88.52109563 75.89480578 78.4921875 58.71875 C69.15449372 44.39425919 56.74702246 37.88220316 41.5 31.3125 C40.62472656 30.9309375 39.74945312 30.549375 38.84765625 30.15625 C35.87458195 29.08772413 32.90157827 28.41070991 29.8125 27.75 C28.67425781 27.50121094 27.53601563 27.25242187 26.36328125 26.99609375 C7.97215569 23.7418501 -12.15607647 23.90515906 -30.5 27.3125 C-31.7478125 27.50714844 -32.995625 27.70179688 -34.28125 27.90234375 C-65.0006267 32.86027814 -95.34377364 46.24159136 -120.5 64.3125 C-121.69247297 65.14283735 -122.88630671 65.97122695 -124.08203125 66.796875 C-130.75728383 71.47843062 -137.11740266 76.3406277 -143.23754883 81.73339844 C-145.85773663 84.02411666 -148.27816974 85.95593989 -151.5 87.3125 C-151.5 87.9725 -151.5 88.6325 -151.5 89.3125 C-152.86328125 90.6171875 -152.86328125 90.6171875 -154.8125 92.1875 C-170.09047916 105.26759444 -182.07074957 122.24645384 -192.5 139.3125 C-193.38558594 140.69695312 -193.38558594 140.69695312 -194.2890625 142.109375 C-212.02276378 170.77480994 -225.91501384 212.83124088 -218.25 246.73828125 C-212.73495246 265.66753298 -203.0210583 274.3375214 -186.5 284.3125 C-186.83 285.3025 -187.16 286.2925 -187.5 287.3125 C-189.828125 288.4453125 -189.828125 288.4453125 -192.75 289.4375 C-194.18085938 289.93636719 -194.18085938 289.93636719 -195.640625 290.4453125 C-209.77144674 294.73088958 -225.99880088 293.27806023 -239.125 286.6875 C-248.66796976 281.10472518 -255.79035528 273.72609373 -261.5 264.3125 C-261.96148437 263.55582031 -262.42296875 262.79914063 -262.8984375 262.01953125 C-276.712745 237.02819314 -273.70191561 202.84527941 -266.125 176.4375 C-264.02120071 169.52211821 -261.50465639 162.8908765 -258.5 156.3125 C-258.01950195 155.21542725 -258.01950195 155.21542725 -257.52929688 154.09619141 C-248.97876328 134.61695856 -237.85410452 117.03366209 -223.5 101.3125 C-223.01821289 100.7772168 -222.53642578 100.24193359 -222.04003906 99.69042969 C-212.6985819 89.31575996 -203.17456156 79.18345961 -192.22265625 70.48046875 C-190.45701076 69.07453869 -188.71296177 67.64087767 -186.99609375 66.17578125 C-169.73412699 51.49652096 -149.62415873 40.04390797 -129.29443359 30.19433594 C-126.67200776 28.90560096 -124.09136574 27.53738822 -121.5 26.1875 C-111.97975348 21.42737674 -101.86181531 17.85640633 -91.6328125 14.953125 C-89.67861083 14.36614867 -87.77175932 13.62716318 -85.875 12.875 C-69.86490274 6.83994381 -52.32028447 4.8279757 -35.5 2.3125 C-34.24123047 2.12051025 -32.98246094 1.92852051 -31.68554688 1.73071289 C-21.10656947 0.24825364 -10.67347755 -0.04516209 0 0 Z " fill="#FCFCFC" transform="translate(595.5,273.6875)"/>
<path d="M0 0 C3.64187858 1.21395953 3.91745993 2.09006077 5.6875 5.375 C6.34298828 6.56222656 6.34298828 6.56222656 7.01171875 7.7734375 C8 10 8 10 8 13 C6.68 12.67 5.36 12.34 4 12 C4 11.01 4 10.02 4 9 C3.34 9 2.68 9 2 9 C2.33 9.99 2.66 10.98 3 12 C1.68 12 0.36 12 -1 12 C-0.67 8.04 -0.34 4.08 0 0 Z " fill="#212120" transform="translate(329,531)"/>
<path d="M0 0 C-0.33 1.65 -0.66 3.3 -1 5 C-0.01 5.33 0.98 5.66 2 6 C-1.48108108 8.11351351 -1.48108108 8.11351351 -4 7.5625 C-4.66 7.376875 -5.32 7.19125 -6 7 C-7.051875 7.2784375 -7.051875 7.2784375 -8.125 7.5625 C-8.74375 7.706875 -9.3625 7.85125 -10 8 C-10.66 7.34 -11.32 6.68 -12 6 C-10.37829621 4.99466333 -8.75252763 3.99588093 -7.125 3 C-5.76761719 2.1646875 -5.76761719 2.1646875 -4.3828125 1.3125 C-2 0 -2 0 0 0 Z " fill="#242324" transform="translate(494,326)"/>
<path d="M0 0 C1 3 1 3 0 6 C0.33 6.99 0.66 7.98 1 9 C-0.4375 11.6875 -0.4375 11.6875 -2 14 C-4.97 13.505 -4.97 13.505 -8 13 C-7.50628906 12.22914063 -7.01257813 11.45828125 -6.50390625 10.6640625 C-5.86324219 9.66117187 -5.22257813 8.65828125 -4.5625 7.625 C-3.92441406 6.62726563 -3.28632812 5.62953125 -2.62890625 4.6015625 C-1.03100789 2.14169479 -1.03100789 2.14169479 0 0 Z M-2 6 C-1 8 -1 8 -1 8 Z " fill="#ECEDEC" transform="translate(654,458)"/>
<path d="M0 0 C2.19219402 2.36689329 2.9871902 3.51727269 3.07421875 6.796875 C2.94660156 7.77140625 2.81898438 8.7459375 2.6875 9.75 C2.50767578 11.22726562 2.50767578 11.22726562 2.32421875 12.734375 C2.21722656 13.48203125 2.11023438 14.2296875 2 15 C1.67 15 1.34 15 1 15 C0.67 16.98 0.34 18.96 0 21 C-0.66 21 -1.32 21 -2 21 C-1.86142159 17.87463363 -1.71290431 14.74981783 -1.5625 11.625 C-1.52318359 10.73554688 -1.48386719 9.84609375 -1.44335938 8.9296875 C-1.40146484 8.07890625 -1.35957031 7.228125 -1.31640625 6.3515625 C-1.27974854 5.56604004 -1.24309082 4.78051758 -1.20532227 3.97119141 C-1 2 -1 2 0 0 Z " fill="#212121" transform="translate(323,462)"/>
<path d="M0 0 C1.65 0.99 3.3 1.98 5 3 C4.01 3.495 4.01 3.495 3 4 C3 5.65 3 7.3 3 9 C2.38125 9.144375 1.7625 9.28875 1.125 9.4375 C-1.03258322 9.93152225 -1.03258322 9.93152225 -3 11 C-3.75 9.4375 -3.75 9.4375 -4 7 C-2.86915563 4.49713591 -1.47860484 2.32992278 0 0 Z " fill="#1F1F1F" transform="translate(403,411)"/>
<path d="M0 0 C0.99 0 1.98 0 3 0 C2.34 2.31 1.68 4.62 1 7 C0.34 7 -0.32 7 -1 7 C-0.67 7.66 -0.34 8.32 0 9 C0.66 8.67 1.32 8.34 2 8 C1.67 9.32 1.34 10.64 1 12 C-1.16874252 11.49396008 -2.99967627 11.00016187 -5 10 C-3.66786942 6.4134946 -2.23083941 3.12317517 0 0 Z " fill="#212121" transform="translate(589,452)"/>
<path d="M0 0 C9.24 0 18.48 0 28 0 C28 0.33 28 0.66 28 1 C25.36 1 22.72 1 20 1 C20 1.66 20 2.32 20 3 C17.66705225 3.04241723 15.33297433 3.04092937 13 3 C12.67 2.67 12.34 2.34 12 2 C9.98405418 1.76572222 7.961526 1.58663876 5.9375 1.4375 C4.83277344 1.35371094 3.72804688 1.26992188 2.58984375 1.18359375 C1.73519531 1.12300781 0.88054688 1.06242187 0 1 C0 0.67 0 0.34 0 0 Z " fill="#2B2B2B" transform="translate(580,298)"/>
<path d="M0 0 C0.66 0.66 1.32 1.32 2 2 C1.66306057 5.36939433 0.11180592 7.42910583 -2 10 C-4.97 9.505 -4.97 9.505 -8 9 C-7.04270084 7.87411986 -6.08412105 6.7493285 -5.125 5.625 C-4.59132813 4.99851562 -4.05765625 4.37203125 -3.5078125 3.7265625 C-2.38567993 2.44163349 -1.20628025 1.20628025 0 0 Z " fill="#262525" transform="translate(677,509)"/>
<path d="M0 0 C0.99 0 1.98 0 3 0 C3.66 0.99 4.32 1.98 5 3 C5.66 2.34 6.32 1.68 7 1 C7 2.98 7 4.96 7 7 C6.67 7 6.34 7 6 7 C5.67 8.65 5.34 10.3 5 12 C4.01 11.67 3.02 11.34 2 11 C1.34 7.37 0.68 3.74 0 0 Z " fill="#1E1E1D" transform="translate(735,353)"/>
<path d="M0 0 C0.7734375 0.61875 0.7734375 0.61875 1.5625 1.25 C1.5625 2.24 1.5625 3.23 1.5625 4.25 C0.2425 3.92 -1.0775 3.59 -2.4375 3.25 C-2.1075 3.91 -1.7775 4.57 -1.4375 5.25 C-3.7475 5.58 -6.0575 5.91 -8.4375 6.25 C-8.7675 5.26 -9.0975 4.27 -9.4375 3.25 C-3.0375 -0.93461538 -3.0375 -0.93461538 0 0 Z " fill="#212020" transform="translate(605.4375,568.75)"/>
<path d="M0 0 C0.33 0 0.66 0 1 0 C1.29915966 8.97478992 1.29915966 8.97478992 -1 12 C-1.99 12.33 -2.98 12.66 -4 13 C-3.88541307 11.56163249 -3.75790884 10.12429034 -3.625 8.6875 C-3.55539062 7.88699219 -3.48578125 7.08648437 -3.4140625 6.26171875 C-2.93323575 3.63531602 -1.90798913 1.90798913 0 0 Z " fill="#272727" transform="translate(381,468)"/>
<path d="M0 0 C2 3 2 3 1.7578125 5.04296875 C1.171875 7.02864583 0.5859375 9.01432292 0 11 C-1.65 11.33 -3.3 11.66 -5 12 C-3.41037341 7.96479403 -1.71767682 3.98188718 0 0 Z " fill="#1E1D1E" transform="translate(726,440)"/>
<path d="M0 0 C0.495 0.185625 0.99 0.37125 1.5 0.5625 C5.15081689 1.20139296 8.33964724 0.54905291 12 0 C11.505 0.474375 11.01 0.94875 10.5 1.4375 C8.88457803 2.75923698 8.88457803 2.75923698 9 4 C5.37 4.33 1.74 4.66 -2 5 C-1.34 3.35 -0.68 1.7 0 0 Z " fill="#1F1E1F" transform="translate(516,563)"/>
<path d="M0 0 C0.33 1.32 0.66 2.64 1 4 C1.66 4 2.32 4 3 4 C3.33 4.99 3.66 5.98 4 7 C2.5625 9.6875 2.5625 9.6875 1 12 C0.67 11.34 0.34 10.68 0 10 C-0.66 10 -1.32 10 -2 10 C-1.85950482 8.52031676 -1.71245174 7.04125484 -1.5625 5.5625 C-1.48128906 4.73878906 -1.40007813 3.91507812 -1.31640625 3.06640625 C-1 1 -1 1 0 0 Z " fill="#202020" transform="translate(738,404)"/>
<path d="M0 0 C-2.64738916 1.4606285 -3.89448334 2 -7 2 C-8.56406528 2.15127402 -10.12659252 2.31902522 -11.6875 2.5 C-12.49574219 2.5928125 -13.30398438 2.685625 -14.13671875 2.78125 C-15.05904297 2.88953125 -15.05904297 2.88953125 -16 3 C-16 2.34 -16 1.68 -16 1 C-16.66 0.67 -17.32 0.34 -18 0 C-12.00223894 -1.49944026 -5.99776106 -1.49944026 0 0 Z " fill="#262525" transform="translate(583,300)"/>
<path d="M0 0 C0.33 0.99 0.66 1.98 1 3 C-2.82352941 8.46218487 -2.82352941 8.46218487 -6.1875 10 C-6.785625 10 -7.38375 10 -8 10 C-8.66 9.34 -9.32 8.68 -10 8 C-6.7 5.36 -3.4 2.72 0 0 Z " fill="#232323" transform="translate(643,540)"/>
<path d="M0 0 C0.33 1.32 0.66 2.64 1 4 C-2.82989106 5.80230168 -5.78121808 6.19622241 -10 6 C-2.6 0 -2.6 0 0 0 Z " fill="#EAEAE9" transform="translate(437,321)"/>
<path d="M0 0 C0.33 1.32 0.66 2.64 1 4 C1.66 4 2.32 4 3 4 C3.1953125 10.0546875 3.1953125 10.0546875 3 12 C2.34 12.66 1.68 13.32 1 14 C-2.06345049 9.40482427 -0.68983752 5.26001107 0 0 Z " fill="#1E1E1E" transform="translate(674,404)"/>
<path d="M0 0 C5.61 0 11.22 0 17 0 C17 0.33 17 0.66 17 1 C12.71 1 8.42 1 4 1 C3.34 2.32 2.68 3.64 2 5 C1.01 4.67 0.02 4.34 -1 4 C-0.67 2.68 -0.34 1.36 0 0 Z " fill="#0D0D0D" transform="translate(492,600)"/>
<path d="M0 0 C1.21811255 3.65433764 0.56632223 4.60630184 -1 8 C-1.33 8.66 -1.66 9.32 -2 10 C-1.67 10.33 -1.34 10.66 -1 11 C-1 11.66 -1 12.32 -1 13 C-1.99 13.33 -2.98 13.66 -4 14 C-4.66 13.67 -5.32 13.34 -6 13 C-4.58707905 8.1725201 -2.57025846 4.2837641 0 0 Z " fill="#202021" transform="translate(448,674)"/>
<path d="M0 0 C2.475 0.99 2.475 0.99 5 2 C4.34 3.32 3.68 4.64 3 6 C0 6 0 6 -2 5 C-1.34 3.35 -0.68 1.7 0 0 Z " fill="#1F1F1F" transform="translate(610,505)"/>
<path d="M0 0 C0.66 0.33 1.32 0.66 2 1 C2.40729228 3.32156597 2.74438677 5.6568787 3 8 C1.68 7.67 0.36 7.34 -1 7 C-1.33 7.66 -1.66 8.32 -2 9 C-2.66 8.01 -3.32 7.02 -4 6 C-2.68 4.02 -1.36 2.04 0 0 Z " fill="#242424" transform="translate(413,396)"/>
<path d="M0 0 C2 1 2 1 3 3 C2.195625 3.12375 1.39125 3.2475 0.5625 3.375 C-0.7059375 3.684375 -0.7059375 3.684375 -2 4 C-2.33 4.66 -2.66 5.32 -3 6 C-5.64 6 -8.28 6 -11 6 C-8.66460191 4.44306794 -6.42031244 3.09799354 -3.9375 1.8125 C-2.89916016 1.26529297 -2.89916016 1.26529297 -1.83984375 0.70703125 C-1.23269531 0.47371094 -0.62554688 0.24039063 0 0 Z " fill="#2E2E2D" transform="translate(584,578)"/>
<path d="M0 0 C3.14958831 3.42346555 3.56179109 6.44262737 4 11 C3.67 10.34 3.34 9.68 3 9 C2.01 9.33 1.02 9.66 0 10 C-0.74926071 6.33694766 -1.2380014 3.57644848 0 0 Z " fill="#202020" transform="translate(377,513)"/>
<path d="M0 0 C0.99 0 1.98 0 3 0 C4.125 3.75 4.125 3.75 3 6 C2.01 6 1.02 6 0 6 C-0.99 7.485 -0.99 7.485 -2 9 C-2 8.34 -2 7.68 -2 7 C-2.66 6.67 -3.32 6.34 -4 6 C-2.1875 3 -2.1875 3 0 0 Z " fill="#272726" transform="translate(577,471)"/>
<path d="M0 0 C0.33 0 0.66 0 1 0 C1.5497272 5.63470383 -0.04952165 8.38987758 -3 13 C-3.66 12.67 -4.32 12.34 -5 12 C-3.68938409 7.76570244 -2.05643741 3.92592596 0 0 Z " fill="#2B2B2B" transform="translate(600,432)"/>
<path d="M0 0 C0.66 0 1.32 0 2 0 C2 1.65 2 3.3 2 5 C-1.375 5.625 -1.375 5.625 -5 6 C-5.66 5.34 -6.32 4.68 -7 4 C-6.030625 3.525625 -5.06125 3.05125 -4.0625 2.5625 C-1.19522563 1.29806053 -1.19522563 1.29806053 0 0 Z " fill="#222122" transform="translate(524,557)"/>
<path d="M0 0 C1.98 0.495 1.98 0.495 4 1 C4 1.66 4 2.32 4 3 C4.99 3.33 5.98 3.66 7 4 C6.67 4.99 6.34 5.98 6 7 C2.535 5.02 2.535 5.02 -1 3 C-0.67 2.01 -0.34 1.02 0 0 Z " fill="#282828" transform="translate(697,298)"/>
<path d="M0 0 C2.31 0.33 4.62 0.66 7 1 C7 1.66 7 2.32 7 3 C4.69 2.34 2.38 1.68 0 1 C0 0.67 0 0.34 0 0 Z M0 2 C2.475 2.495 2.475 2.495 5 3 C4.67 4.32 4.34 5.64 4 7 C2.68 6.34 1.36 5.68 0 5 C0 4.01 0 3.02 0 2 Z " fill="#202020" transform="translate(688,290)"/>
<path d="M0 0 C0.66 0.99 1.32 1.98 2 3 C1.34 3.66 0.68 4.32 0 5 C-1.32 5 -2.64 5 -4 5 C-4 6.32 -4 7.64 -4 9 C-6 8 -6 8 -8 6 C-5.36 4.02 -2.72 2.04 0 0 Z " fill="#222222" transform="translate(473,338)"/>
<path d="M0 0 C0.99 0 1.98 0 3 0 C3.33 0.99 3.66 1.98 4 3 C2.0625 5.6875 2.0625 5.6875 0 8 C-0.66 7.67 -1.32 7.34 -2 7 C-1.34 4.69 -0.68 2.38 0 0 Z " fill="#1F1F1F" transform="translate(470,529)"/>
<path d="M0 0 C1 4 1 4 -0.21484375 6.140625 C-0.78332031 6.83671875 -1.35179687 7.5328125 -1.9375 8.25 C-2.50339844 8.95640625 -3.06929688 9.6628125 -3.65234375 10.390625 C-4.31943359 11.18726563 -4.31943359 11.18726563 -5 12 C-5.66 11.67 -6.32 11.34 -7 11 C-4.69 7.37 -2.38 3.74 0 0 Z " fill="#E6E6E7" transform="translate(500,490)"/>
<path d="M0 0 C3 2 3 2 3.6875 4.9375 C4 8 4 8 4 11 C3.34 11 2.68 11 2 11 C-1.07692308 5.70769231 -1.07692308 5.70769231 -0.6875 2.125 C-0.460625 1.42375 -0.23375 0.7225 0 0 Z " fill="#212121" transform="translate(603,377)"/>
<path d="M0 0 C1.65 0 3.3 0 5 0 C3.68 0.33 2.36 0.66 1 1 C1.99 1.33 2.98 1.66 4 2 C4 2.66 4 3.32 4 4 C5.65 4 7.3 4 9 4 C9 4.33 9 4.66 9 5 C4.83861737 5.08159574 1.0527516 4.98248524 -3 4 C-2.34 3.67 -1.68 3.34 -1 3 C-0.67 2.01 -0.34 1.02 0 0 Z " fill="#111011" transform="translate(571,362)"/>
<path d="M0 0 C1.32 0.33 2.64 0.66 4 1 C4 1.99 4 2.98 4 4 C1.36 4.33 -1.28 4.66 -4 5 C-2.68 3.35 -1.36 1.7 0 0 Z " fill="#1F1F1E" transform="translate(452,354)"/>
<path d="M0 0 C0.8353125 0.556875 0.8353125 0.556875 1.6875 1.125 C-0.36483685 3.3727975 -1.31917261 4.1272242 -4.3125 5.125 C-5.3025 3.805 -6.2925 2.485 -7.3125 1.125 C-2.88173077 -1.09038462 -2.88173077 -1.09038462 0 0 Z " fill="#222121" transform="translate(573.3125,584.875)"/>
<path d="M0 0 C0.33 0 0.66 0 1 0 C1.33 3.63 1.66 7.26 2 11 C1.01 11.33 0.02 11.66 -1 12 C-2.45606519 7.47907032 -1.27032841 4.48351204 0 0 Z " fill="#262626" transform="translate(324,504)"/>
<path d="M0 0 C0.99 0.99 1.98 1.98 3 3 C1.68 4.65 0.36 6.3 -1 8 C-1.66 7.01 -2.32 6.02 -3 5 C-2.67 4.67 -2.34 4.34 -2 4 C-2.66 3.34 -3.32 2.68 -4 2 C-2.68 1.34 -1.36 0.68 0 0 Z " fill="#F2F1F1" transform="translate(572,473)"/>
<path d="M0 0 C0.99 0.33 1.98 0.66 3 1 C-1.625 5.875 -1.625 5.875 -5 7 C-5.33 6.34 -5.66 5.68 -6 5 C-5.34 5 -4.68 5 -4 5 C-3.67 4.01 -3.34 3.02 -3 2 C-2.01 1.34 -1.02 0.68 0 0 Z " fill="#EBEBEB" transform="translate(470,337)"/>
<path d="M0 0 C1.16512384 3.49537151 2 6.3040893 2 10 C0.02 8.35 -1.96 6.7 -4 5 C-3.01 4.67 -2.02 4.34 -1 4 C-0.26676204 1.98491642 -0.26676204 1.98491642 0 0 Z " fill="#2B2B2B" transform="translate(390,537)"/>
<path d="M0 0 C1.9375 0.6875 1.9375 0.6875 4 2 C4.75 4.625 4.75 4.625 5 7 C4.01 7 3.02 7 2 7 C0.25 5.1875 0.25 5.1875 -1 3 C-0.67 2.01 -0.34 1.02 0 0 Z " fill="#F0F0F0" transform="translate(336,537)"/>
<path d="M0 0 C1 3 1 3 1 6 C0.01 6 -0.98 6 -2 6 C-1.67 6.99 -1.34 7.98 -1 9 C-1.99 8.67 -2.98 8.34 -4 8 C-3.50168276 4.31245243 -2.89932357 2.39509338 0 0 Z " fill="#242424" transform="translate(668,518)"/>
<path d="M0 0 C1.98 0.495 1.98 0.495 4 1 C4 1.99 4 2.98 4 4 C3.34 4.66 2.68 5.32 2 6 C1.01 5.67 0.02 5.34 -1 5 C-0.67 3.35 -0.34 1.7 0 0 Z " fill="#202020" transform="translate(475,520)"/>
<path d="M0 0 C0.99 0.33 1.98 0.66 3 1 C2.67 1.99 2.34 2.98 2 4 C1.34 4 0.68 4 0 4 C0.33 4.99 0.66 5.98 1 7 C-1.475 6.01 -1.475 6.01 -4 5 C-2.68 3.35 -1.36 1.7 0 0 Z " fill="#232323" transform="translate(682,504)"/>
<path d="M0 0 C1.32 0 2.64 0 4 0 C3.6875 2.375 3.6875 2.375 3 5 C2.01 5.66 1.02 6.32 0 7 C-0.66 6.67 -1.32 6.34 -2 6 C-1.67 5.01 -1.34 4.02 -1 3 C-0.34 3 0.32 3 1 3 C0.67 2.01 0.34 1.02 0 0 Z " fill="#242424" transform="translate(404,337)"/>
<path d="M0 0 C2.8692842 0.46845456 4.36961744 0.43215166 7.0625 -0.5 C6.0725 0.985 6.0725 0.985 5.0625 2.5 C2.96875 2.86328125 2.96875 2.86328125 0.5625 2.8125 C-0.2315625 2.80863281 -1.025625 2.80476563 -1.84375 2.80078125 C-3.9375 2.5 -3.9375 2.5 -5.9375 0.5 C-2.9375 -0.5 -2.9375 -0.5 0 0 Z " fill="#252525" transform="translate(544.9375,305.5)"/>
<path d="M0 0 C0.99 0.33 1.98 0.66 3 1 C1.35 2.98 -0.3 4.96 -2 7 C-2.66 6.67 -3.32 6.34 -4 6 C-2.84826645 3.53199953 -1.95216435 1.95216435 0 0 Z " fill="#E6E5E6" transform="translate(685,497)"/>
<path d="M0 0 C-0.33 1.32 -0.66 2.64 -1 4 C-1 3.34 -1 2.68 -1 2 C-1.66 2 -2.32 2 -3 2 C-3.33 3.65 -3.66 5.3 -4 7 C-4.66 7 -5.32 7 -6 7 C-6.6875 5.1875 -6.6875 5.1875 -7 3 C-4.8243318 -0.20624788 -4.07796486 0 0 0 Z " fill="#1E1E1E" transform="translate(567,494)"/>
<path d="M0 0 C0.66 1.32 1.32 2.64 2 4 C1.01 5.32 0.02 6.64 -1 8 C-1.66 5.69 -2.32 3.38 -3 1 C-2.01 0.67 -1.02 0.34 0 0 Z " fill="#1F1F1F" transform="translate(556,396)"/>
<path d="M0 0 C1.32 0.33 2.64 0.66 4 1 C4 2.32 4 3.64 4 5 C2.02 5.99 2.02 5.99 0 7 C0 4.69 0 2.38 0 0 Z " fill="#232323" transform="translate(664,322)"/>
<path d="M0 0 C0.33 0.66 0.66 1.32 1 2 C1.66 2 2.32 2 3 2 C2.625 4.4375 2.625 4.4375 2 7 C1.01 7.495 1.01 7.495 0 8 C0 7.01 0 6.02 0 5 C-0.66 5 -1.32 5 -2 5 C-1.34 3.35 -0.68 1.7 0 0 Z " fill="#1E1E1E" transform="translate(420,608)"/>
<path d="M0 0 C1.98 0.495 1.98 0.495 4 1 C2.68 3.31 1.36 5.62 0 8 C-1.09658936 4.71023192 -0.79953138 3.28696233 0 0 Z " fill="#1F1E1F" transform="translate(708,472)"/>
<path d="M0 0 C0.99 0.66 1.98 1.32 3 2 C-0.96 3.98 -0.96 3.98 -5 6 C-4.1875 3.5625 -4.1875 3.5625 -3 1 C-2.01 0.67 -1.02 0.34 0 0 Z " fill="#E4E4E4" transform="translate(609,562)"/>
<path d="M0 0 C0.33 0.99 0.66 1.98 1 3 C1.66 3.33 2.32 3.66 3 4 C3 4.66 3 5.32 3 6 C2.34 6 1.68 6 1 6 C0.67 6.66 0.34 7.32 0 8 C-0.99 7.01 -1.98 6.02 -3 5 C-2.01 3.35 -1.02 1.7 0 0 Z " fill="#1E1E1E" transform="translate(713,464)"/>
<path d="M0 0 C0.66 0.33 1.32 0.66 2 1 C0.50902342 4.7952131 -1.75700849 6.61042731 -5 9 C-3.7508258 5.54074837 -2.32472205 2.85306797 0 0 Z " fill="#E8E7E7" transform="translate(537,434)"/>
<path d="M0 0 C0.99 0.33 1.98 0.66 3 1 C1.1875 4 1.1875 4 -1 7 C-1.99 7 -2.98 7 -4 7 C-2.92598892 4.08482708 -2.22189824 2.22189824 0 0 Z " fill="#1E1E1E" transform="translate(536,431)"/>
<path d="M0 0 C2.34058637 2.12780579 3.70700306 4.11562221 5 7 C4.01 7.495 4.01 7.495 3 8 C1.5 6.8125 1.5 6.8125 0 5 C-0.1875 2.3125 -0.1875 2.3125 0 0 Z " fill="#212121" transform="translate(388,736)"/>
<path d="M0 0 C1.98 0 3.96 0 6 0 C6 0.99 6 1.98 6 3 C5.67 3 5.34 3 5 3 C4.01 3.495 4.01 3.495 3 4 C0.875 3.0625 0.875 3.0625 -1 2 C-0.67 1.34 -0.34 0.68 0 0 Z " fill="#100F10" transform="translate(407,554)"/>
<path d="M0 0 C0.66 0.33 1.32 0.66 2 1 C2 1.99 2 2.98 2 4 C1.01 4 0.02 4 -1 4 C-1.33 4.66 -1.66 5.32 -2 6 C-2 5.01 -2 4.02 -2 3 C-1.34 3 -0.68 3 0 3 C0 2.01 0 1.02 0 0 Z M-5 4 C-4.67 4.66 -4.34 5.32 -4 6 C-3.34 6.33 -2.68 6.66 -2 7 C-2.66 7 -3.32 7 -4 7 C-4.33 7.66 -4.66 8.32 -5 9 C-5.33 8.01 -5.66 7.02 -6 6 C-5.67 5.34 -5.34 4.68 -5 4 Z " fill="#242323" transform="translate(531,544)"/>
<path d="M0 0 C2.5 2.3125 2.5 2.3125 5 5 C5 5.99 5 6.98 5 8 C4.21625 7.360625 3.4325 6.72125 2.625 6.0625 C0.20460719 4.01857687 0.20460719 4.01857687 -2 3 C-1 1 -1 1 0 0 Z " fill="#222222" transform="translate(338,544)"/>
<path d="M0 0 C0.99 0.66 1.98 1.32 3 2 C1.35 3.32 -0.3 4.64 -2 6 C-2.66 4.35 -3.32 2.7 -4 1 C-2.68 1.33 -1.36 1.66 0 2 C0 1.34 0 0.68 0 0 Z " fill="#EAEAEA" transform="translate(661,521)"/>
<path d="M0 0 C1.74627478 2.61941217 2.38722388 4.03824877 3 7 C1.35 7 -0.3 7 -2 7 C-1.34 4.69 -0.68 2.38 0 0 Z " fill="#131212" transform="translate(515,456)"/>
<path d="M0 0 C1.98 0.495 1.98 0.495 4 1 C2.25 4.875 2.25 4.875 0 6 C-1.125 2.25 -1.125 2.25 0 0 Z " fill="#262627" transform="translate(396,345)"/>
<path d="M0 0 C4 0 4 0 7 1 C5.35 2.32 3.7 3.64 2 5 C1.34 4.67 0.68 4.34 0 4 C0 2.68 0 1.36 0 0 Z " fill="#1F1F1F" transform="translate(425,322)"/>
<path d="M0 0 C0.66 0.99 1.32 1.98 2 3 C1.125 5.6875 1.125 5.6875 0 8 C-0.99 7.67 -1.98 7.34 -3 7 C-1.125 2.25 -1.125 2.25 0 0 Z " fill="#272727" transform="translate(459,654)"/>
<path d="M0 0 C0.66 0.33 1.32 0.66 2 1 C0.62845496 3.95409701 -0.98863724 6.44008376 -3 9 C-3.66 8.67 -4.32 8.34 -5 8 C-3.35 5.36 -1.7 2.72 0 0 Z " fill="#DFDFDF" transform="translate(469,538)"/>
<path d="M0 0 C2 3 2 3 2 6 C0.68 5.67 -0.64 5.34 -2 5 C-2.33 3.68 -2.66 2.36 -3 1 C-2.01 0.67 -1.02 0.34 0 0 Z " fill="#232323" transform="translate(326,517)"/>
<path d="M0 0 C0.33 0 0.66 0 1 0 C1.625 2.875 1.625 2.875 2 6 C0 8 0 8 -3 10 C-2.01 6.7 -1.02 3.4 0 0 Z " fill="#DEDDDD" transform="translate(674,420)"/>
<path d="M0 0 C1.66666667 0 3.33333333 0 5 0 C5.33 1.32 5.66 2.64 6 4 C3.92446352 4.5534764 2.15634036 5 0 5 C0 3.35 0 1.7 0 0 Z " fill="#1F1F1E" transform="translate(376,361)"/>
<path d="M0 0 C1.9375 0.3125 1.9375 0.3125 4 1 C4.33 1.99 4.66 2.98 5 4 C4.01 4.66 3.02 5.32 2 6 C0 3 0 3 0 0 Z " fill="#222323" transform="translate(412,330)"/>
<path d="M0 0 C3 1 3 1 4 3 C2.02 3.66 0.04 4.32 -2 5 C-2 2 -2 2 0 0 Z " fill="#222122" transform="translate(519,313)"/>
<path d="M0 0 C0.99 0.66 1.98 1.32 3 2 C2.34 3.65 1.68 5.3 1 7 C0.01 7 -0.98 7 -2 7 C-1.34 4.69 -0.68 2.38 0 0 Z " fill="#232323" transform="translate(427,717)"/>
<path d="M0 0 C0.33 0 0.66 0 1 0 C1 2.97 1 5.94 1 9 C0.34 9 -0.32 9 -1 9 C-1.80967438 6.08517222 -2.21845993 4.53886783 -1.0625 1.6875 C-0.711875 1.130625 -0.36125 0.57375 0 0 Z " fill="#232323" transform="translate(451,668)"/>
<path d="M0 0 C1.32 0.99 2.64 1.98 4 3 C2.02 3.99 0.04 4.98 -2 6 C-2 3 -2 3 0 0 Z " fill="#232324" transform="translate(537,532)"/>
<path d="M0 0 C0.93423645 3.01031744 1.04449911 3.86650268 0 7 C-0.66 7 -1.32 7 -2 7 C-2.33 5.35 -2.66 3.7 -3 2 C-2.01 1.34 -1.02 0.68 0 0 Z " fill="#131212" transform="translate(694,492)"/>
<path d="M0 0 C0.66 0.33 1.32 0.66 2 1 C0.02 3.97 0.02 3.97 -2 7 C-2.66 5.68 -3.32 4.36 -4 3 C-2.68 2.01 -1.36 1.02 0 0 Z " fill="#2A2A2A" transform="translate(503,483)"/>
<path d="M0 0 C0.33 0.66 0.66 1.32 1 2 C1.66 2.33 2.32 2.66 3 3 C1.35 4.65 -0.3 6.3 -2 8 C-1.125 1.125 -1.125 1.125 0 0 Z " fill="#262626" transform="translate(635,480)"/>
<path d="M0 0 C2 3 2 3 1.625 6.1875 C1.41875 7.115625 1.2125 8.04375 1 9 C0.01 8.01 -0.98 7.02 -2 6 C-1.34 4.02 -0.68 2.04 0 0 Z " fill="#2C2B2B" transform="translate(726,440)"/>
<path d="M0 0 C0.66 0 1.32 0 2 0 C2 1.98 2 3.96 2 6 C1.01 6 0.02 6 -1 6 C-1.33 4.68 -1.66 3.36 -2 2 C-1.34 2 -0.68 2 0 2 C0 1.34 0 0.68 0 0 Z " fill="#212120" transform="translate(332,434)"/>
<path d="M0 0 C1.5625 1.6875 1.5625 1.6875 3 4 C2.6875 6.75 2.6875 6.75 2 9 C1.67 8.34 1.34 7.68 1 7 C0.01 7 -0.98 7 -2 7 C-1.34 4.69 -0.68 2.38 0 0 Z " fill="#1E1D1E" transform="translate(564,373)"/>
<path d="M0 0 C-1.36983503 3.16115776 -1.9890638 3.9927092 -5 6 C-5.33 5.01 -5.66 4.02 -6 3 C-2.25 0 -2.25 0 0 0 Z " fill="#252525" transform="translate(376,370)"/>
<path d="M0 0 C0.99 0.33 1.98 0.66 3 1 C-1.75 5.875 -1.75 5.875 -4 7 C-2.79618552 4.50638429 -1.54571278 2.31856917 0 0 Z " fill="#E8E8E9" transform="translate(458,346)"/>
</svg>
